<?xml version="1.0" encoding="UTF-8"?>
<svg xmlns="http://www.w3.org/2000/svg" version="1.1" viewBox="220 474 192 44">
  <defs>
    <style>
      .tl { fill: #5b5b5b; }
      .tb { fill: #231815; }
    </style>
  </defs>
  <!-- ANN (large) -->
  <path class="tb" d="M229.38,498.47h-5.38l9.82-19.28c1.04-2.02,2.94-2.79,5.88-2.79s4.8.77,5.8,2.79l9.44,19.28h-5.43l-8.49-17.44c-.25-.51-.7-.74-1.37-.74s-1.12.22-1.41.74l-8.86,17.44Z"/>
  <path class="tb" d="M260.83,498.47h-4.89v-17.35c0-2.83,2.07-4.72,6.42-4.72,3.89,0,5.63,1.54,6.79,4.02l8.16,13.85c.33.51.87.9,1.78.9,1.04,0,1.66-.48,1.66-1.22v-17.16h4.93v17.32c0,2.86-2.11,4.75-6.42,4.75-3.89,0-5.67-1.54-6.83-4.02l-8.16-13.85c-.37-.64-.87-.93-1.74-.93-1.12,0-1.7.48-1.7,1.25v17.16Z"/>
  <path class="tb" d="M294.14,498.47h-4.89v-17.35c0-2.83,2.07-4.72,6.42-4.72,3.89,0,5.63,1.54,6.79,4.02l8.16,13.85c.33.51.87.9,1.78.9,1.04,0,1.66-.48,1.66-1.22v-17.16h4.93v17.32c0,2.86-2.11,4.75-6.42,4.75-3.89,0-5.67-1.54-6.83-4.02l-8.16-13.85c-.37-.64-.87-.93-1.74-.93-1.12,0-1.7.48-1.7,1.25v17.16Z"/>
  <!-- Verify (medium) -->
  <path class="tb" d="M332.12,483.09l5.66,12.59c.17.37.47.53.91.53s.72-.16.91-.53l5.94-12.59h3.62l-6.57,13.91c-.69,1.46-1.96,2.02-3.89,2.02-1.82,0-3.23-.49-3.92-2.02l-6.24-13.91h3.59Z"/>
  <path class="tb" d="M358.85,486.5c3.45,0,4.92,1.39,4.92,3.76s-1.35,3.52-4.94,3.52h-6.93v.88c0,.97.63,1.69,2.24,1.69h8.92v2.39h-8.92c-3.64,0-5.08-1.72-5.08-4.03v-4.17c0-2.32,1.44-4.03,5.08-4.03h4.72ZM351.89,491.86h6.85c1.57,0,2.15-.56,2.15-1.46s-.63-1.53-2.07-1.53h-4.69c-1.6,0-2.24.74-2.24,1.69v1.3Z"/>
  <path class="tb" d="M375.72,486.5v2.36h-5.14c-1.3,0-1.88.51-1.88,1.58v8.3h-2.93v-8.67c0-2.46,1.08-3.57,3.95-3.57h5.99Z"/>
  <path class="tb" d="M380.33,486.5v-1.09c0-3.2,1.3-4.22,4.31-4.22h2.62v2.25h-2.02c-1.38,0-1.96.46-1.96,1.83v1.23h4.03v2.36h-4.03v9.87h-2.95v-9.87h-1.99v-2.36h1.99Z"/>
  <path class="tb" d="M378.34,486.49h-2.62v-2.73h2.62v2.73Z"/>
  <path class="tb" d="M378.34,498.74h-2.62v-9.87h2.62v9.87Z"/>
  <path class="tb" d="M405.2,486.5l-8.78,17.15h-3.15l2.73-5.35c-1.72,0-2.32-.44-2.73-1.51l-4.89-10.29h3.09l4.39,9.11c.19.44.33.51.88.51h.39l4.94-9.62h3.12Z"/>
  <!-- AI News Network (small) -->
  <path class="tl" d="M271.31,513.77h-1.79l-.74-1.84h-3.58l-.73,1.84h-1.43l3.09-7.71h2.06l3.12,7.71ZM268.32,510.82l-1.36-3.44-1.36,3.44h2.71Z"/>
  <path class="tl" d="M274.1,513.77h-1.68v-7.71h1.68v7.71Z"/>
  <path class="tl" d="M286.66,513.77h-1.63l-3.53-4.93c-.05-.08-.14-.2-.27-.37-.05-.08-.14-.19-.25-.36v5.65h-1.35v-7.71h1.85l3.26,4.54s.23.31.59.83v-5.37h1.32v7.71Z"/>
  <path class="tl" d="M292.99,511.95l1.4.16c-.18.52-.54.94-1.06,1.28-.53.34-1.19.5-1.98.5-.95,0-1.72-.27-2.3-.8s-.87-1.25-.87-2.16.29-1.58.88-2.14c.59-.56,1.38-.85,2.38-.85s1.74.28,2.28.84c.54.56.8,1.27.8,2.15v.15h-4.73c0,.39.04.7.13.93s.26.44.53.61.59.26.99.26c.77,0,1.29-.31,1.55-.93ZM292.9,510.24c0-.41-.15-.75-.45-1.01-.29-.26-.66-.39-1.09-.39s-.78.12-1.07.36-.45.59-.5,1.03h3.11Z"/>
  <path class="tl" d="M304.46,508.06l-2.02,5.71h-1.4l-1.24-4-1.23,4h-1.44l-2.12-5.71h1.65l1.36,3.84,1.19-3.84h1.41l1.21,3.84,1.33-3.84h1.31Z"/>
  <path class="tl" d="M304.7,512.46l1.46-.23c.22.46.71.69,1.47.69.96,0,1.45-.24,1.45-.71,0-.15-.08-.27-.23-.37-.15-.1-.33-.16-.53-.2l-1.25-.2c-1.39-.22-2.09-.79-2.09-1.69,0-.5.22-.93.66-1.29s1.1-.53,1.97-.53c1.45,0,2.34.44,2.67,1.33l-1.38.23c-.15-.43-.56-.64-1.24-.64-.83,0-1.24.21-1.24.64,0,.3.33.5,1,.62l1.48.25c1.15.2,1.72.74,1.72,1.64,0,.63-.29,1.1-.89,1.41-.59.31-1.29.47-2.11.47-.7,0-1.33-.12-1.87-.35-.54-.24-.89-.59-1.06-1.08Z"/>
  <path class="tl" d="M322.48,513.77h-1.63l-3.53-4.93c-.05-.08-.14-.2-.27-.37-.05-.08-.14-.19-.25-.36v5.65h-1.35v-7.71h1.85l3.26,4.54s.23.31.59.83v-5.37h1.32v7.71Z"/>
  <path class="tl" d="M328.81,511.95l1.4.16c-.18.52-.54.94-1.06,1.28s-1.19.5-1.98.5c-.95,0-1.72-.27-2.3-.8-.58-.53-.87-1.25-.87-2.16s.29-1.58.88-2.14c.59-.56,1.38-.85,2.38-.85s1.74.28,2.28.84.8,1.27.8,2.15v.15h-4.73c0,.39.04.7.13.93s.26.44.53.61.59.26.99.26c.77,0,1.29-.31,1.55-.93ZM328.72,510.24c0-.41-.15-.75-.45-1.01-.29-.26-.66-.39-1.09-.39s-.78.12-1.07.36-.45.59-.5,1.03h3.11Z"/>
  <path class="tl" d="M334.86,512.76v1.01c-.46.08-.82.12-1.08.12-.42,0-.78-.07-1.08-.21-.3-.14-.52-.33-.66-.56-.14-.24-.21-.61-.21-1.1v-2.95h-.86v-1h.95l.14-1.49,1.27-.1v1.58h1.38v1h-1.38v2.79c0,.36.08.6.24.73s.45.19.89.19c.12,0,.25,0,.39-.01Z"/>
  <path class="tl" d="M344.82,508.06l-2.02,5.71h-1.4l-1.24-4-1.23,4h-1.44l-2.12-5.71h1.65l1.36,3.84,1.19-3.84h1.41l1.21,3.84,1.33-3.84h1.31Z"/>
  <path class="tl" d="M348.5,513.89c-1.02,0-1.79-.3-2.33-.91-.54-.61-.8-1.3-.8-2.08,0-.84.3-1.55.89-2.11.59-.56,1.38-.84,2.35-.84s1.68.27,2.27.82.89,1.26.89,2.13-.31,1.62-.92,2.17-1.4.82-2.34.82ZM348.55,512.82c1.04,0,1.57-.65,1.57-1.94,0-.58-.12-1.04-.37-1.38-.25-.34-.63-.51-1.15-.51s-.93.17-1.19.52-.39.81-.39,1.39c0,.62.14,1.1.41,1.42s.65.49,1.13.49Z"/>
  <path class="tl" d="M354.74,513.77h-1.55v-5.71h1.4v1.36c.2-.53.47-.92.82-1.16s.71-.37,1.08-.37c.05,0,.12,0,.2,0v1.38c-.79,0-1.31.21-1.57.63-.26.42-.38.82-.38,1.21v2.64Z"/>
  <path class="tl" d="M364.15,513.77h-1.64l-1.76-2.93-1.53,1.42v1.51h-1.49v-7.71h1.49v4.79c.13-.14.24-.25.31-.32l2.73-2.46h1.67l-2.07,1.89,2.28,3.82Z"/>
</svg>
