<?xml version="1.0" encoding="UTF-8"?>
<svg xmlns="http://www.w3.org/2000/svg" version="1.1" xmlns:xlink="http://www.w3.org/1999/xlink" viewBox="260 376 117 101">
  <defs>
    <linearGradient id="sl" x1="333.42" y1="441.91" x2="377.75" y2="432.24" gradientUnits="userSpaceOnUse">
      <stop offset="0" stop-color="#74afd5"/>
      <stop offset=".82" stop-color="#1b7fc4"/>
    </linearGradient>
    <linearGradient id="sm" x1="309.61" y1="418.04" x2="370.46" y2="473.85" gradientUnits="userSpaceOnUse">
      <stop offset="0" stop-color="#6cbedd"/>
      <stop offset=".11" stop-color="#38b3da"/>
      <stop offset=".44" stop-color="#37b1d8"/>
      <stop offset=".56" stop-color="#33aad1"/>
      <stop offset=".64" stop-color="#2d9ec5"/>
      <stop offset=".71" stop-color="#248db5"/>
      <stop offset=".73" stop-color="#2187af"/>
      <stop offset="1" stop-color="#19789f"/>
    </linearGradient>
  </defs>
  <path fill="#74afd5" d="M302.88,403.68c.63.44,6.85,6.07,8.61,7.82-5.3-.24-26.18-1.83-38.3,1.05-1.95.67-3.29,1.59-4.3,2.13.9-5.64,5.62-17.2,12.56-22.49,1.54-1.11,4.94-1.5,6.92,0,4.64,2.66,10.29,7.92,14.51,11.48Z"/>
  <path fill="#74afd5" d="M291.54,414.3c.76-.13,9.14-.54,11.62-.54-3.92,3.57-19.82,17.2-26.37,27.79-.91,1.85-1.21,3.45-1.54,4.55-3.35-4.63-8.17-16.14-6.99-24.8.31-1.87,2.44-4.55,4.9-4.89,5.16-1.39,12.87-1.66,18.38-2.12Z"/>
  <path fill="#74afd5" d="M290.89,429.76c.46-.62,6.22-6.72,8-8.44-.35,5.29-2.38,26.14.24,38.31.63,1.96,1.52,3.33,2.04,4.35-5.62-1.02-17.08-5.98-22.22-13.04-1.08-1.56-1.39-4.97.15-6.92,2.76-4.58,8.14-10.11,11.79-14.26Z"/>
  <path fill="url(#sl)" d="M301.08,441.3c-.09-.76-.04-9.15.09-11.63,3.35,4.11,16.09,20.73,26.31,27.85,1.79,1.01,3.38,1.4,4.46,1.78-4.8,3.09-16.57,7.28-25.14,5.63-1.85-.41-4.41-2.68-4.61-5.16-1.11-5.23-.95-12.95-1.11-18.47Z"/>
  <path fill="#74afd5" d="M328.82,453.46c-.91-.82-2.27-2.04-3.94-3.5-4.03-3.53-5.89-5.11-8.15-6.96-1.48-1.21-6.78-6.47-8.36-8.08,7.54.89,30.16.27,34.53-.46-1.28,1.39-2.52,2.12-3.43,2.53-1.85.84-2.77.55-4.84,1.61-1.22.63-2.04,1.12-2.77,2.07-1.09,1.41-.74,2.13-1.11,4.68-.24,1.66-.05,2.14-1.11,3.37-1.13,1.32-.72,3.26-.84,4.73Z"/>
  <path fill="#74afd5" d="M318.77,404.61c.12.76.48,9.14.47,11.62-3.55-3.94-17.08-19.93-27.63-26.54-1.84-.92-3.44-1.23-4.54-1.57,4.65-3.32,16.19-8.08,24.84-6.84,1.87.32,4.53,2.47,4.86,4.93,1.36,5.17,1.58,12.88,2,18.39Z"/>
  <path fill="#74afd5" d="M329.38,416.08c-.44.63-6.02,6.89-7.75,8.67.2-5.3,1.62-26.19-1.36-38.29-.68-1.94-1.61-3.28-2.17-4.28,5.65.85,17.25,5.48,22.59,12.38,1.12,1.53,1.54,4.93.05,6.92-2.62,4.66-7.84,10.35-11.37,14.6Z"/>
  <path fill="#74afd5" d="M327.96,431.96c-.75.14-9.13.67-11.61.71,3.87-3.63,19.57-17.48,25.96-28.17.88-1.86,1.16-3.47,1.47-4.57,3.42,4.58,8.41,16.02,7.35,24.69-.28,1.88-2.37,4.58-4.83,4.96-5.14,1.47-12.85,1.84-18.35,2.38Z"/>
  <path fill="url(#sm)" d="M334.56,441.65c-.67.89-.97,1.7-1.11,2.3-.24,1.05,0,1.35-.24,2.8-.1.63-.24,1.46-.71,2.42-.52,1.07-.83,1.06-1.07,1.88-.06.22-.4,1.36.13,2.4.25.49.42.41,1.36,1.43.67.72,1,1.08,1.26,1.61.26.54.16.63.54,2.08.26,1.02.4,1.54.64,1.88.61.87,1.52,1.2,1.75,1.28.18.06.64.13,1.58.27,1.06.16,1.18.15,1.54.27.52.18.91.42,1.31.67.43.27.45.33,1.04.74.67.46,1,.69,1.31.81.21.08.99.37,1.88.17.24-.05.61-.24,1.34-.6.31-.15.68-.35,1.14-.6,1.19-.66,1.04-.67,1.44-.84.39-.17.97-.27,2.12-.47,1.03-.18,1.13-.16,1.48-.3.22-.09.83-.35,1.34-.94.24-.27.41-.66.74-1.41.32-.72.39-.96.77-1.88.52-1.24.66-1.46.74-1.58.29-.43.63-.78.97-1.14.61-.64.69-.6.87-.91.38-.61.37-1.26.37-1.58,0-.6-.16-1.05-.3-1.44-.22-.62-.38-.74-.67-1.34-.07-.15-.48-1.01-.67-2.13-.07-.42-.01-.3-.13-2.14-.07-.99-.1-1.29-.2-1.68-.11-.43-.24-.91-.6-1.41-.33-.46-.7-.72-.97-.91-.5-.35-.94-.5-1.51-.71-.6-.21-.65-.17-1.68-.47-.83-.24-1.26-.36-1.71-.57-.59-.27-1.01-.55-1.34-.77-.85-.57-.83-.72-1.51-1.14-.43-.27-.94-.58-1.68-.74-.35-.08-1.06-.22-1.88,0-.44.12-.83.37-1.61.87-.62.4-.67.49-1.24.84-.55.33-1,.54-1.28.67-.73.34-1.36.56-1.81.71-.96.3-1.08.23-1.68.44-.51.17-1.24.5-2.05,1.18Z"/>
  <path fill="#fff" d="M338.12,449.58c.57-.6,1.46-.74,2.22,0,.06.06.16.09.37.24,1.46,1.04,2.52,2.48,2.52,2.48h0s.49.01.5.01c0,0,6.27-6.32,6.31-6.36.54-.55,1.45-.59,2.15-.03s.48,1.34.24,1.88c-.15.33-.41.51-.47.57-1.49,1.49-6.92,7.06-7.39,7.42-.59.45-1.07.52-2.22,0,0,0-.5-.51-.64-.64-1.81-1.78-3.76-3.49-3.76-3.49-.52-.88-.31-1.57.17-2.08Z"/>
</svg>
